<svg xmlns="http://www.w3.org/2000/svg" viewBox="0 0 340 90"><g fill="#65607C"><path d="M86.9 37l-27-21.9c-5.5-4.4-13.4-4.7-19.1-.7L8.2 36.9c-1.4.9-1.7 2.8-.8 4.2.6.8 1.6 1.2 2.5 1.2.6 0 1.2-.2 1.7-.5l32.5-22.5c3.6-2.5 8.5-2.3 12 .5l27.1 21.9c1.3 1 3.2.8 4.2-.4s.8-3.3-.5-4.3z"/><path d="M85 79H69V64c0-1.7-1.3-3-3-3s-3 1.3-3 3v15H52V56h26c1.7 0 3-1.3 3-3s-1.3-3-3-3H52v-8h16c1.7 0 3-1.3 3-3s-1.3-3-3-3H28c-1.7 0-3 1.3-3 3s1.3 3 3 3h18v8H22c-1.7 0-3 1.3-3 3s1.3 3 3 3h24v23H35V64c0-1.7-1.3-3-3-3s-3 1.3-3 3v15H16c-1.7 0-3 1.3-3 3s1.3 3 3 3h69c1.7 0 3-1.3 3-3s-1.3-3-3-3zm68.2-48H132v-9h15c2.3 0 4.5-.7 6.4-2.1l8.9-6.5c1.3-1 1.6-2.9.6-4.2s-2.9-1.6-4.2-.6l-8.9 6.5c-.8.6-1.8.9-2.8.9H98c-1.7 0-3 1.3-3 3s1.3 3 3 3h28v9h-20.2c-6 0-10.8 4.8-10.8 10.8V68c0 1.7 1.3 3 3 3s3-1.3 3-3V41.8c0-2.6 2.1-4.8 4.8-4.8H126v45c0 1.7 1.3 3 3 3s3-1.3 3-3V37h21.2c2.6 0 4.8 2.1 4.8 4.8v18.5c0 2.6-2.1 4.8-4.8 4.8H150c-1.7 0-3 1.3-3 3s1.3 3 3 3h3.2c5.9 0 10.8-4.8 10.8-10.8V41.8c0-6-4.8-10.8-10.8-10.8zM245 19h-31V8c0-1.7-1.3-3-3-3s-3 1.3-3 3v11h-31c-1.7 0-3 1.3-3 3s1.3 3 3 3h18v9c0 .8.3 1.5.8 2.1h-7c-2.9 0-5.6 1.1-7.6 3.1s-3.2 4.7-3.2 7.6V82c0 1.7 1.3 3 3 3s3-1.3 3-3V46.8c0-1.3.5-2.5 1.4-3.4s2.1-1.4 3.4-1.4l44.5.2c2.6 0 4.7 2.1 4.7 4.6l.6 27.2c0 1.3-.5 2.5-1.4 3.4s-2.1 1.4-3.4 1.4H231c-1.7 0-3 1.3-3 3s1.3 3 3 3h2.9c2.9 0 5.6-1.1 7.7-3.2s3.1-4.8 3.1-7.8l-.7-27c-.1-5.9-4.8-10.5-10.7-10.5h-5.8c.6-.5 1-1.3 1-2.1l.4-9.1H245c1.7 0 3-1.3 3-3s-1.3-3.1-3-3.1zm-21.5 17.2l-23.4-.1c.5-.5.9-1.3.9-2.1v-9h21.8l-.4 8.9c.1.9.5 1.8 1.1 2.3z"/><path d="M229.3 57.3c.5.3 1 .4 1.5.4 1 0 2-.5 2.6-1.5.8-1.4.3-3.3-1.1-4.1l-11-6.3c-1.4-.8-3.3-.3-4.1 1.1-.8 1.4-.3 3.3 1.1 4.1l11 6.3zm-23.9-10.5c-.8-1.4-2.7-1.9-4.1-1.1l-11 6.3c-1.4.8-1.9 2.7-1.1 4.1.6 1 1.6 1.5 2.6 1.5.5 0 1-.1 1.5-.4l11-6.3c1.4-.8 1.9-2.6 1.1-4.1zM216 58h-10.8c-5.9 0-10.8 4.6-10.8 10.5s5 10.5 10.9 10.5H216c5.9 0 10.8-4.6 10.8-10.5S222 58 216 58zm0 15h-10.8c-2.6 0-4.8-1.9-4.8-4.5s2.1-4.5 4.8-4.5H216c2.6 0 4.8 1.9 4.8 4.5S218.7 73 216 73zm60.6-17.9c-.9-1.4-2.7-1.9-4.1-1l-3.1 1.9-.2-19h4.9c1.7 0 3-1.3 3-3s-1.3-3-3-3h-4.9l-.2-17.3c0-1.6-1.4-2.7-3-2.7-1.7 0-3 1.1-3 2.8l.2 17.2H254c-1.7 0-3 1.3-3 3s1.3 3 3 3h9.1l.3 22.6-10.2 6.1c-1.4.9-1.9 2.7-1 4.1.6.9 1.6 1.5 2.6 1.5.5 0 1.1-.1 1.5-.4l19.2-11.6c1.5-.9 1.9-2.8 1.1-4.2z"/><path d="M332 79h-4.5c-1.9 0-3.6-1.1-4.4-2.9l-4.1-9.9 4.8-4.7c2-2 3.2-4.8 3.2-7.6V37c0-1.7-1.3-3-3-3s-3 1.3-3 3v16.8c0 1.3-.5 2.5-1.4 3.4l-3 3-1.2-2.9c-.2-.6-.4-1.2-.4-1.8V25h1.7c3 0 5.8-1.2 7.8-3.4l5.5-5.9c1.1-1.2 1.1-3.1-.1-4.2s-3.1-1.1-4.2.1l-5.5 5.9c-.9 1-2.2 1.5-3.5 1.5H315V8c0-1.7-1.3-3-3-3s-3 1.3-3 3v11h-17.2c-5.9 0-10.8 4.8-10.8 10.8v37.5c0 1.5-.7 2.8-1.8 3.7l-10.9 8.7c-1.3 1-1.5 2.9-.5 4.2.6.7 1.5 1.1 2.4 1.1.7 0 1.3-.2 1.9-.7l10.9-8.7c2.6-2.1 4.1-5.1 4.1-8.4V42.5l4.5.2c2.5.1 4.5 2.2 4.5 4.7v12.4c0 1.6-.8 3.1-2.2 4l-2.6 1.7c-1.4.9-1.8 2.8-.9 4.2.6.9 1.5 1.4 2.5 1.4.6 0 1.1-.2 1.6-.5l2.6-1.7c3.1-2 4.9-5.4 4.9-9V47.4c0-5.8-4.5-10.5-10.3-10.7l-4.7-.2v-6.7c0-2.6 2.1-4.8 4.8-4.8H309v30.5c0 1.4.3 2.8.8 4.1l2.1 5.1-9.2 9.1c-1.2 1.2-1.2 3.1 0 4.2.6.6 1.4.9 2.1.9.8 0 1.5-.3 2.1-.9l7.5-7.4 3.2 7.7c1.7 4 5.6 6.6 9.9 6.6h4.5c1.7 0 3-1.3 3-3s-1.3-2.9-3-2.9z"/></g></svg>